<svg xmlns="http://www.w3.org/2000/svg" width="1440" height="960" viewBox="0 0 1440 960" role="img" aria-label="Conversation Cockpit Expanded">
  <rect width="100%" height="100%" fill="#f7f8fb" />
  <rect x="18" y="18" width="1404" height="924" rx="10" fill="#ffffff" stroke="#dfe5ee" />
  <text x="40" y="918" font-size="11" font-weight="500" fill="#758293">Cockpit 展开态</text>
  <rect x="18" y="18" width="1404" height="44" rx="10" fill="#fbfcfe" stroke="#dfe5ee" />
  <circle cx="44" cy="40" r="5" fill="#76b900" />
  <text x="62" y="44" font-size="13" font-weight="700" fill="#26313f">会话 15:28 · spectrai-community</text>
  <text x="1110" y="44" font-size="12" font-weight="500" fill="#758293">codex · 验证中</text>
  <rect x="96" y="74" width="1136" height="600" rx="9" fill="#ffffff" stroke="#dfe5ee" />
  <rect x="96" y="74" width="7" height="600" rx="4" fill="#76b900" stroke="#76b900" />
  <text x="126" y="108" font-size="11" font-weight="500" fill="#758293">任务驾驶舱 · spectrai-community</text>
  <text x="126" y="132" font-size="16" font-weight="800" fill="#26313f">继续完成核心竞争力增强计划</text>
  <text x="126" y="154" font-size="11.5" font-weight="500" fill="#758293">交付状态：正在验证 · 主信号：截图检查和报告可复用</text>
  <rect x="1026" y="98" width="78" height="26" rx="7" fill="#f5fbef" stroke="#c8e4b6" />
  <text x="1036" y="115" font-size="11" font-weight="700" fill="#76b900">可交付 91</text>
  <rect x="1112" y="98" width="50" height="26" rx="7" fill="#f2f8ff" stroke="#bdd9fb" />
  <text x="1122" y="115" font-size="11" font-weight="700" fill="#2f81f7">展开</text>
  <circle cx="134" cy="163" r="4" fill="#76b900" />
  <line x1="144" y1="163" x2="332" y2="163" stroke="#cfe8bd" stroke-width="1" />
  <text x="128" y="184" font-size="11" font-weight="500" fill="#758293">理解</text>
  <circle cx="348" cy="163" r="4" fill="#76b900" />
  <line x1="358" y1="163" x2="546" y2="163" stroke="#cfe8bd" stroke-width="1" />
  <text x="342" y="184" font-size="11" font-weight="500" fill="#758293">执行</text>
  <circle cx="562" cy="163" r="4" fill="#76b900" />
  <line x1="572" y1="163" x2="760" y2="163" stroke="#cfe8bd" stroke-width="1" />
  <text x="556" y="184" font-size="11" font-weight="500" fill="#758293">改动</text>
  <circle cx="776" cy="163" r="4" fill="#76b900" />
  <line x1="786" y1="163" x2="974" y2="163" stroke="#cfe8bd" stroke-width="1" />
  <text x="770" y="184" font-size="11" font-weight="500" fill="#758293">验证</text>
  <circle cx="990" cy="163" r="4" fill="#cfd7e2" />
  <line x1="1000" y1="163" x2="1188" y2="163" stroke="#dfe5ee" stroke-width="1" />
  <text x="984" y="184" font-size="11" font-weight="500" fill="#758293">交付</text>
  <rect x="104" y="218" width="380" height="172" rx="8" fill="#f2f8ff" stroke="#bdd9fb" />
  <text x="118" y="243" font-size="13" font-weight="700" fill="#26313f">团队模板</text>
  <rect x="116" y="262" width="356" height="22.5" rx="6" fill="#ffffff" stroke="#edf2f7" />
  <text x="128" y="281" font-size="11.5" font-weight="500" fill="#758293">Bug 修复 · 复现根因</text>
  <rect x="116" y="290.5" width="356" height="22.5" rx="6" fill="#ffffff" stroke="#edf2f7" />
  <text x="128" y="309.5" font-size="11.5" font-weight="500" fill="#758293">功能交付 · 验收证据</text>
  <rect x="116" y="319" width="356" height="22.5" rx="6" fill="#ffffff" stroke="#edf2f7" />
  <text x="128" y="338" font-size="11.5" font-weight="500" fill="#758293">UI 打磨 · 层级效率</text>
  <rect x="116" y="347.5" width="356" height="22.5" rx="6" fill="#ffffff" stroke="#edf2f7" />
  <text x="128" y="366.5" font-size="11.5" font-weight="500" fill="#758293">发布检查 · 变更风险</text>
  <rect x="508" y="218" width="380" height="172" rx="8" fill="#f7f2ff" stroke="#d6c5fb" />
  <text x="522" y="243" font-size="13" font-weight="700" fill="#26313f">协作看板</text>
  <rect x="520" y="262" width="356" height="30" rx="6" fill="#ffffff" stroke="#edf2f7" />
  <text x="532" y="281" font-size="11.5" font-weight="500" fill="#758293">Agent roadmap-risk · 已完成</text>
  <rect x="520" y="298" width="356" height="30" rx="6" fill="#ffffff" stroke="#edf2f7" />
  <text x="532" y="317" font-size="11.5" font-weight="500" fill="#758293">Agent technical-assets · 已完成</text>
  <rect x="520" y="334" width="356" height="30" rx="6" fill="#ffffff" stroke="#edf2f7" />
  <text x="532" y="353" font-size="11.5" font-weight="500" fill="#758293">Agent product-analysis · 已完成</text>
  <rect x="912" y="218" width="300" height="172" rx="8" fill="#f5fbef" stroke="#c8e4b6" />
  <text x="926" y="243" font-size="13" font-weight="700" fill="#26313f">交付门禁</text>
  <rect x="924" y="262" width="276" height="22.5" rx="6" fill="#ffffff" stroke="#edf2f7" />
  <text x="936" y="281" font-size="11.5" font-weight="500" fill="#758293">目标清晰 · 通过</text>
  <rect x="924" y="290.5" width="276" height="22.5" rx="6" fill="#ffffff" stroke="#edf2f7" />
  <text x="936" y="309.5" font-size="11.5" font-weight="500" fill="#758293">验证证据 · 通过</text>
  <rect x="924" y="319" width="276" height="22.5" rx="6" fill="#ffffff" stroke="#edf2f7" />
  <text x="936" y="338" font-size="11.5" font-weight="500" fill="#758293">异常清零 · 通过</text>
  <rect x="924" y="347.5" width="276" height="22.5" rx="6" fill="#ffffff" stroke="#edf2f7" />
  <text x="936" y="366.5" font-size="11.5" font-weight="500" fill="#758293">交付说明 · 待补齐</text>
  <rect x="104" y="420" width="548" height="200" rx="8" fill="#fff8e8" stroke="#f0d18e" />
  <text x="118" y="445" font-size="13" font-weight="700" fill="#26313f">证据时间线</text>
  <rect x="116" y="464" width="524" height="29.5" rx="6" fill="#ffffff" stroke="#edf2f7" />
  <text x="128" y="483" font-size="11.5" font-weight="500" fill="#758293">18:00 用户要求继续</text>
  <rect x="116" y="499.5" width="524" height="29.5" rx="6" fill="#ffffff" stroke="#edf2f7" />
  <text x="128" y="518.5" font-size="11.5" font-weight="500" fill="#758293">18:02 新增视觉 QA 脚本</text>
  <rect x="116" y="535" width="524" height="29.5" rx="6" fill="#ffffff" stroke="#edf2f7" />
  <text x="128" y="554" font-size="11.5" font-weight="500" fill="#758293">18:04 生成 Dashboard 快照</text>
  <rect x="116" y="570.5" width="524" height="29.5" rx="6" fill="#ffffff" stroke="#edf2f7" />
  <text x="128" y="589.5" font-size="11.5" font-weight="500" fill="#758293">18:05 生成 Cockpit 快照</text>
  <rect x="676" y="420" width="536" height="200" rx="8" fill="#f5fbef" stroke="#c8e4b6" />
  <text x="690" y="445" font-size="13" font-weight="700" fill="#26313f">组织可信层</text>
  <rect x="688" y="464" width="512" height="30" rx="6" fill="#ffffff" stroke="#edf2f7" />
  <text x="700" y="483" font-size="11.5" font-weight="500" fill="#758293">审计线索 13 对话 / 27 工具</text>
  <rect x="688" y="500" width="512" height="30" rx="6" fill="#ffffff" stroke="#edf2f7" />
  <text x="700" y="519" font-size="11.5" font-weight="500" fill="#758293">权限策略：探索模式</text>
  <rect x="688" y="536" width="512" height="30" rx="6" fill="#ffffff" stroke="#edf2f7" />
  <text x="700" y="555" font-size="11.5" font-weight="500" fill="#758293">交付报告：待补齐</text>
  <rect x="18" y="874" width="1404" height="68" rx="0" fill="#fbfcfe" stroke="#dfe5ee" />
  <rect x="76" y="890" width="1180" height="36" rx="8" fill="#ffffff" stroke="#dfe5ee" />
  <text x="94" y="913" font-size="12" font-weight="500" fill="#758293">输入消息，Enter 发送，/ 查看命令，拖拽文件引用</text>
  <rect x="1272" y="890" width="36" height="36" rx="8" fill="#2f81f7" stroke="#2f81f7" />
  <text x="1284" y="914" font-size="18" font-weight="800" fill="#ffffff">↑</text>
</svg>
