<svg xmlns="http://www.w3.org/2000/svg" width="1440" height="960" viewBox="0 0 1440 960" role="img" aria-label="Conversation Cockpit Collapsed">
  <rect width="100%" height="100%" fill="#f7f8fb" />
  <rect x="18" y="18" width="1404" height="924" rx="10" fill="#ffffff" stroke="#dfe5ee" />
  <text x="40" y="918" font-size="11" font-weight="500" fill="#758293">Cockpit 折叠态</text>
  <rect x="18" y="18" width="1404" height="44" rx="10" fill="#fbfcfe" stroke="#dfe5ee" />
  <circle cx="44" cy="40" r="5" fill="#76b900" />
  <text x="62" y="44" font-size="13" font-weight="700" fill="#26313f">会话 15:28 · spectrai-community</text>
  <text x="1110" y="44" font-size="12" font-weight="500" fill="#758293">codex · 正在处理</text>
  <rect x="48" y="82" width="250" height="42" rx="8" fill="#f2f8ff" stroke="#bdd9fb" />
  <text x="62" y="108" font-size="12" font-weight="500" fill="#26313f">用户：继续</text>
  <rect x="96" y="184" width="1136" height="300" rx="9" fill="#ffffff" stroke="#dfe5ee" />
  <rect x="96" y="184" width="7" height="300" rx="4" fill="#76b900" stroke="#76b900" />
  <text x="126" y="218" font-size="11" font-weight="500" fill="#758293">任务驾驶舱 · spectrai-community</text>
  <text x="126" y="242" font-size="16" font-weight="800" fill="#26313f">继续完成核心竞争力增强计划</text>
  <text x="126" y="264" font-size="11.5" font-weight="500" fill="#758293">交付状态：继续收敛方案 · 主信号：可靠性与证据闭环</text>
  <rect x="1026" y="208" width="78" height="26" rx="7" fill="#f5fbef" stroke="#c8e4b6" />
  <text x="1036" y="225" font-size="11" font-weight="700" fill="#76b900">可交付 88</text>
  <rect x="1112" y="208" width="50" height="26" rx="7" fill="#f2f8ff" stroke="#bdd9fb" />
  <text x="1122" y="225" font-size="11" font-weight="700" fill="#2f81f7">收起</text>
  <circle cx="134" cy="273" r="4" fill="#76b900" />
  <line x1="144" y1="273" x2="332" y2="273" stroke="#cfe8bd" stroke-width="1" />
  <text x="128" y="294" font-size="11" font-weight="500" fill="#758293">理解</text>
  <circle cx="348" cy="273" r="4" fill="#76b900" />
  <line x1="358" y1="273" x2="546" y2="273" stroke="#cfe8bd" stroke-width="1" />
  <text x="342" y="294" font-size="11" font-weight="500" fill="#758293">执行</text>
  <circle cx="562" cy="273" r="4" fill="#76b900" />
  <line x1="572" y1="273" x2="760" y2="273" stroke="#cfe8bd" stroke-width="1" />
  <text x="556" y="294" font-size="11" font-weight="500" fill="#758293">改动</text>
  <circle cx="776" cy="273" r="4" fill="#76b900" />
  <line x1="786" y1="273" x2="974" y2="273" stroke="#cfe8bd" stroke-width="1" />
  <text x="770" y="294" font-size="11" font-weight="500" fill="#758293">验证</text>
  <circle cx="990" cy="273" r="4" fill="#cfd7e2" />
  <line x1="1000" y1="273" x2="1188" y2="273" stroke="#dfe5ee" stroke-width="1" />
  <text x="984" y="294" font-size="11" font-weight="500" fill="#758293">交付</text>
  <rect x="32" y="330" width="412" height="90" rx="8" fill="#f5fbef" stroke="#c8e4b6" />
  <text x="44" y="352" font-size="11" font-weight="500" fill="#758293">目标清晰</text>
  <text x="44" y="380" font-size="22" font-weight="800" fill="#26313f">通过</text>
  <text x="44" y="403" font-size="10.5" font-weight="500" fill="#758293">已识别当前 Mission 的目标上下文</text>
  <rect x="454" y="330" width="412" height="90" rx="8" fill="#f5fbef" stroke="#c8e4b6" />
  <text x="466" y="352" font-size="11" font-weight="500" fill="#758293">验证证据</text>
  <text x="466" y="380" font-size="22" font-weight="800" fill="#26313f">通过</text>
  <text x="466" y="403" font-size="10.5" font-weight="500" fill="#758293">已看到 3 条验证命令</text>
  <rect x="876" y="330" width="412" height="90" rx="8" fill="#fff8e8" stroke="#f0d18e" />
  <text x="888" y="352" font-size="11" font-weight="500" fill="#758293">交付说明</text>
  <text x="888" y="380" font-size="22" font-weight="800" fill="#26313f">待补齐</text>
  <text x="888" y="403" font-size="10.5" font-weight="500" fill="#758293">需要包含变更、验证、风险和下一步</text>
  <rect x="48" y="520" width="520" height="42" rx="8" fill="#fbfcfe" stroke="#dfe5ee" />
  <text x="62" y="546" font-size="12" font-weight="500" fill="#26313f">Codex：我会继续推进剩余的视觉 QA 检查。</text>
  <rect x="18" y="874" width="1404" height="68" rx="0" fill="#fbfcfe" stroke="#dfe5ee" />
  <rect x="76" y="890" width="1180" height="36" rx="8" fill="#ffffff" stroke="#dfe5ee" />
  <text x="94" y="913" font-size="12" font-weight="500" fill="#758293">输入消息，Enter 发送，/ 查看命令，拖拽文件引用</text>
  <rect x="1272" y="890" width="36" height="36" rx="8" fill="#2f81f7" stroke="#2f81f7" />
  <text x="1284" y="914" font-size="18" font-weight="800" fill="#ffffff">↑</text>
</svg>
